<svg width="96" height="96" viewBox="0 0 96 96" fill="none" xmlns="http://www.w3.org/2000/svg">
  <rect x="10" y="10" width="76" height="76" rx="26" fill="#0A0A12"/>
  <rect x="10" y="10" width="76" height="76" rx="26" stroke="url(#paint0_linear)" stroke-width="4"/>
  <path d="M32 58C32 46.2 41.2 36 53.5 36H62L54 44H53.5C46 44 40 50.1 40 57.8V61L32 69V58Z" fill="url(#paint1_linear)"/>
  <path d="M64 38C64 49.8 54.8 60 42.5 60H34L42 52H42.5C50 52 56 45.9 56 38.2V35L64 27V38Z" fill="white"/>
  <circle cx="48" cy="48" r="6" fill="#9B5CFF"/>
  <defs>
    <linearGradient id="paint0_linear" x1="18" y1="18" x2="78" y2="78" gradientUnits="userSpaceOnUse">
      <stop stop-color="#B85CFF"/>
      <stop offset="1" stop-color="#4F8BFF"/>
    </linearGradient>
    <linearGradient id="paint1_linear" x1="32" y1="36" x2="62" y2="69" gradientUnits="userSpaceOnUse">
      <stop stop-color="#B85CFF"/>
      <stop offset="1" stop-color="#4F8BFF"/>
    </linearGradient>
  </defs>
</svg>
